<?xml version="1.0" encoding="UTF-8" standalone="no"?>
<!-- Created with Inkscape (http://www.inkscape.org/) -->

<svg
   xmlns:dc="http://purl.org/dc/elements/1.1/"
   xmlns:cc="http://creativecommons.org/ns#"
   xmlns:rdf="http://www.w3.org/1999/02/22-rdf-syntax-ns#"
   xmlns:svg="http://www.w3.org/2000/svg"
   xmlns="http://www.w3.org/2000/svg"
   xmlns:xlink="http://www.w3.org/1999/xlink"
   xmlns:sodipodi="http://sodipodi.sourceforge.net/DTD/sodipodi-0.dtd"
   xmlns:inkscape="http://www.inkscape.org/namespaces/inkscape"
   width="744.09448819"
   height="1052.3622047"
   id="svg3006"
   version="1.1"
   inkscape:version="0.47 r22583"
   sodipodi:docname="New document 2">
  <defs
     id="defs3008">
    <inkscape:perspective
       sodipodi:type="inkscape:persp3d"
       inkscape:vp_x="0 : 526.18109 : 1"
       inkscape:vp_y="0 : 1000 : 0"
       inkscape:vp_z="744.09448 : 526.18109 : 1"
       inkscape:persp3d-origin="372.04724 : 350.78739 : 1"
       id="perspective3014" />
    <inkscape:perspective
       id="perspective2946"
       inkscape:persp3d-origin="0.5 : 0.33333333 : 1"
       inkscape:vp_z="1 : 0.5 : 1"
       inkscape:vp_y="0 : 1000 : 0"
       inkscape:vp_x="0 : 0.5 : 1"
       sodipodi:type="inkscape:persp3d" />
    <linearGradient
       inkscape:collect="always"
       xlink:href="#linearGradient4917"
       id="linearGradient4923"
       x1="138.57143"
       y1="-234.78067"
       x2="370"
       y2="-460.49496"
       gradientUnits="userSpaceOnUse"
       gradientTransform="translate(259.01974,753.7499)" />
    <linearGradient
       inkscape:collect="always"
       id="linearGradient4917">
      <stop
         style="stop-color:#e6e6e6;stop-opacity:1;"
         offset="0"
         id="stop4919" />
      <stop
         style="stop-color:#e6e6e6;stop-opacity:0;"
         offset="1"
         id="stop4921" />
    </linearGradient>
    <linearGradient
       inkscape:collect="always"
       xlink:href="#linearGradient4898"
       id="linearGradient4904"
       x1="-77.781746"
       y1="-149.71935"
       x2="-15.152288"
       y2="-245.68384"
       gradientUnits="userSpaceOnUse"
       gradientTransform="translate(259.01974,753.7499)" />
    <linearGradient
       inkscape:collect="always"
       id="linearGradient4898">
      <stop
         style="stop-color:#917c6f;stop-opacity:1;"
         offset="0"
         id="stop4900" />
      <stop
         style="stop-color:#917c6f;stop-opacity:0;"
         offset="1"
         id="stop4902" />
    </linearGradient>
    <linearGradient
       inkscape:collect="always"
       xlink:href="#linearGradient4882"
       id="linearGradient4894"
       gradientUnits="userSpaceOnUse"
       x1="-288.90363"
       y1="-89.110191"
       x2="-242.43661"
       y2="10.894908" />
    <linearGradient
       inkscape:collect="always"
       id="linearGradient4882">
      <stop
         style="stop-color:#6c5d53;stop-opacity:1;"
         offset="0"
         id="stop4884" />
      <stop
         style="stop-color:#6c5d53;stop-opacity:0;"
         offset="1"
         id="stop4886" />
    </linearGradient>
    <linearGradient
       inkscape:collect="always"
       xlink:href="#linearGradient4933"
       id="linearGradient4939"
       x1="38.57143"
       y1="-143.3521"
       x2="134.28572"
       y2="-143.3521"
       gradientUnits="userSpaceOnUse"
       gradientTransform="translate(259.01974,753.7499)" />
    <linearGradient
       inkscape:collect="always"
       id="linearGradient4933">
      <stop
         style="stop-color:#808080;stop-opacity:1;"
         offset="0"
         id="stop4935" />
      <stop
         style="stop-color:#808080;stop-opacity:0;"
         offset="1"
         id="stop4937" />
    </linearGradient>
    <linearGradient
       inkscape:collect="always"
       xlink:href="#linearGradient4823"
       id="linearGradient4835"
       gradientUnits="userSpaceOnUse"
       x1="-424.26407"
       y1="-254.77521"
       x2="-274.76151"
       y2="-523.47577" />
    <linearGradient
       inkscape:collect="always"
       id="linearGradient4823">
      <stop
         style="stop-color:#4d4d4d;stop-opacity:1;"
         offset="0"
         id="stop4825" />
      <stop
         style="stop-color:#4d4d4d;stop-opacity:0;"
         offset="1"
         id="stop4827" />
    </linearGradient>
    <linearGradient
       y2="-523.47577"
       x2="-274.76151"
       y1="-254.77521"
       x1="-424.26407"
       gradientUnits="userSpaceOnUse"
       id="linearGradient3004"
       xlink:href="#linearGradient4823"
       inkscape:collect="always" />
  </defs>
  <sodipodi:namedview
     id="base"
     pagecolor="#ffffff"
     bordercolor="#666666"
     borderopacity="1.0"
     inkscape:pageopacity="0.0"
     inkscape:pageshadow="2"
     inkscape:zoom="0.35"
     inkscape:cx="375"
     inkscape:cy="520"
     inkscape:document-units="px"
     inkscape:current-layer="layer1"
     showgrid="false"
     inkscape:window-width="881"
     inkscape:window-height="638"
     inkscape:window-x="154"
     inkscape:window-y="154"
     inkscape:window-maximized="0" />
  <metadata
     id="metadata3011">
    <rdf:RDF>
      <cc:Work
         rdf:about="">
        <dc:format>image/svg+xml</dc:format>
        <dc:type
           rdf:resource="http://purl.org/dc/dcmitype/StillImage" />
        <dc:title></dc:title>
      </cc:Work>
    </rdf:RDF>
  </metadata>
  <g
     inkscape:label="Layer 1"
     inkscape:groupmode="layer"
     id="layer1">
    <g
       id="g4831"
       transform="translate(667.12137,777.99356)">
      <path
         id="path3701-2"
         d="m -329.42507,-542.88738 c -14.49267,-0.0673 -43.80129,24.03436 -64.84375,65.875 -1.9872,3.12838 -3.8148,6.50292 -5.59375,10.625 -29.14093,67.52351 -28.57143,112.87947 -50,128.59375 -21.42858,15.71428 -14.28125,47.125 -4.28125,87.125 l 92.84375,37.15625 64.3125,-40 10,-117.15625 c 0,0 -12.87053,-29.97769 -17.15625,-41.40625 -0.66135,-1.76361 -2.17733,-6.0448 -4.03125,-11.21875 5.52644,-8.16078 8.62422,-16.48641 7.625,-24.15625 -1.10714,-5.17769 -5.99036,-6.99791 -12.84375,-6 6.08085,-8.57164 9.61452,-17.36241 8.5625,-25.4375 -1.10598,-5.17224 -6.0017,-6.99093 -12.84375,-6 6.08085,-8.57164 9.61451,-17.36241 8.5625,-25.4375 -1.33037,-6.22161 -8.14953,-7.57538 -17.25,-5.03125 4.08197,-6.98874 6.25885,-13.98684 5.40625,-20.53125 -1.00675,-4.70815 -4.04334,-6.97944 -8.46875,-7 z"
         style="fill:#999999;fill-opacity:1;stroke:none" />
      <path
         id="path4821"
         d="m -329.42507,-542.88738 c -14.49267,-0.0673 -43.80129,24.03436 -64.84375,65.875 -1.9872,3.12838 -3.8148,6.50292 -5.59375,10.625 -29.14093,67.52351 -28.57143,112.87947 -50,128.59375 -21.42858,15.71428 -14.28125,47.125 -4.28125,87.125 l 92.84375,37.15625 64.3125,-40 10,-117.15625 c 0,0 -12.87053,-29.97769 -17.15625,-41.40625 -0.66135,-1.76361 -2.17733,-6.0448 -4.03125,-11.21875 5.52644,-8.16078 8.62422,-16.48641 7.625,-24.15625 -1.10714,-5.17769 -5.99036,-6.99791 -12.84375,-6 6.08085,-8.57164 9.61452,-17.36241 8.5625,-25.4375 -1.10598,-5.17224 -6.0017,-6.99093 -12.84375,-6 6.08085,-8.57164 9.61451,-17.36241 8.5625,-25.4375 -1.33037,-6.22161 -8.14953,-7.57538 -17.25,-5.03125 4.08197,-6.98874 6.25885,-13.98684 5.40625,-20.53125 -1.00675,-4.70815 -4.04334,-6.97944 -8.46875,-7 z"
         style="fill:url(#linearGradient3004);fill-opacity:1;stroke:none" />
    </g>
    <path
       style="fill:#b3b3b3;stroke:none"
       d="m 115.6084,532.14273 c 10.99038,7.51258 53.36589,62.92749 61.32631,81.9756 7.23533,17.31308 16.56753,35.14659 27.85123,47.58485 39.22082,43.36318 68.95741,61.40659 127.61853,61.8082 14.95741,0.15165 56.95748,-7.50663 101.38781,-19.17952 39.83898,-10.46664 42.655,5.71321 59.37261,7.2012 66.83957,5.94918 93.54886,9.35704 117.7229,3.24973 -79.38585,-45.56102 -258.69933,-181.89322 -342.38778,-195.90695 -33.59561,-3.11046 -63.56923,-15.89299 -74.99545,-23.05667 -6.012,-3.7692 -20.95569,-11.46302 -28.55542,-23.2339 -8.99922,-13.93847 -24.8537,-24.65866 -43.47368,-18.86326 -17.98145,5.59666 -30.943464,13.0783 -35.094334,26.14859 -3.78757,11.9263 1.86417,18.71295 6.68795,27.86353 10.827604,20.53963 9.962864,16.00503 22.539324,24.4086 l 0,0 z"
       id="path3632"
       sodipodi:nodetypes="csccssccsssssc"
       inkscape:export-filename="U:\pics\squobit-1stattempt.png"
       inkscape:export-xdpi="38.686176"
       inkscape:export-ydpi="38.686176" />
    <path
       style="fill:#6c5d53;stroke:none"
       d="m 258.84586,515.1284 c -43.03523,5.8488 -57.2913,44.66535 -76.97566,77.88334 -1.01957,1.32152 -3.83349,6.36817 -7.88634,6.32723 -0.20813,-0.002 -1.04361,1.7039 -3.84999,-0.65068 2.11184,3.29272 4.02589,8.3993 6.10667,11.82817 2.87417,2.70038 8.78729,-3.39288 15.5595,-8.88614 13.95377,-12.35806 19.54071,-33.5046 28.97968,-48.97985 10.7078,-12.64209 23.35142,-29.78489 38.06614,-37.52207 l 0,0 z"
       id="path3699"
       sodipodi:nodetypes="ccsccccc"
       inkscape:export-filename="U:\pics\squobit-1stattempt.png"
       inkscape:export-xdpi="38.686176"
       inkscape:export-ydpi="38.686176" />
    <path
       sodipodi:nodetypes="csccssccssssssc"
       id="path2968"
       d="m 267.3859,519.71774 c 19.12056,-6.21967 31.86761,0 39.8345,-29.54342 7.96691,-29.54341 1.59338,-55.97699 1.59338,-55.97699 l -4.3532,-12.82535 c 0,0 -2.02031,-2.72382 4.3532,-15.16315 6.37353,-12.43934 124.28369,-110.39909 141.81086,-124.39334 17.52719,-13.99424 46.20803,-24.87866 46.20803,-24.87866 25.83414,-0.59412 42.53925,17.01568 28.68086,74.636 1.97831,10.88442 -9.56029,97.95975 -20.71395,107.28925 -11.15366,9.32949 -60.49484,62.74142 -58.90146,79.84551 1.59339,17.10409 15.8382,86.3033 -17.62279,72.30905 -33.46098,-13.99426 -65.86984,-25.27554 -72.24335,-23.72063 -6.37353,1.55492 -5.7903,20.83805 -12.16382,20.83805 -6.37352,0 -60.54846,-7.77457 -70.10874,-23.32374 -9.56029,-15.54916 -3.18676,-43.53767 -6.37352,-45.09258 l 0,0 z"
       style="fill:#b3b3b3;fill-opacity:1;stroke:none" />
    <path
       id="path2970"
       d="m 466.59034,622.52755 c 67.68022,31.31473 163.64472,58.58885 163.64472,58.58885 0,0 41.41625,14.14213 27.27412,15.15228 -14.14214,1.01016 -50.50763,-6.06091 -66.67007,-9.09137 -16.16244,-3.03046 -106.06602,-27.27412 -106.06602,-27.27412 l -18.18275,-37.37564 0,0 z"
       style="fill:#b3b3b3;fill-opacity:1;stroke:none" />
    <path
       sodipodi:nodetypes="ccscc"
       id="path3744"
       d="m 499.92538,661.9235 c 60.60915,21.2132 125.25891,37.37564 125.25891,37.37564 0,0 14.14214,10.10153 -3.03045,7.07107 -17.1726,-3.03046 -103.03556,-23.23351 -103.03556,-23.23351 l -19.1929,-21.2132 z"
       style="fill:#999999;stroke:none" />
    <path
       style="fill:#483737;stroke:none"
       d="m 343.28621,558.72718 c 89.40463,36.15883 96.4182,43.32657 125.44733,44.35803 29.02914,1.03143 21.70819,-3.6651 6.98335,-14.69748 -14.72481,-11.03242 -29.9417,-19.06405 -29.9417,-19.06405 0,0 18.82144,6.15693 20.55813,-0.94231 1.06709,-4.3621 -10.06598,-16.88804 -17.58826,-21.53529 -6.50947,-4.02153 18.53941,-1.92446 17.56677,-4.85552 -1.14762,-3.45837 -35.43596,-35.53968 -35.43596,-35.53968 0,0 4.67846,3.25644 0.77672,19.2069 -4.04991,16.55632 -12.56667,22.41377 -25.89169,28.70104 -13.03882,6.1522 -59.26768,4.11869 -62.47469,4.36836 l 0,0 z"
       id="path2842"
       sodipodi:nodetypes="csscssscssc"
       inkscape:export-filename="U:\pics\squobit-1stattempt.png"
       inkscape:export-xdpi="38.686176"
       inkscape:export-ydpi="38.686176" />
    <path
       style="fill:#cccccc;stroke:none"
       d="m 585.51974,207.74989 c -36.34682,-0.27191 -141.31996,71.79776 -157.90625,92.90625 7.92341,0.40916 20.32691,-2.15396 34.875,-6.75 -2.75343,1.8017 -4.99079,3.40797 -6.46875,4.75 5.53687,1.00461 14.07388,0.67015 24.25,-0.6875 -12.44684,4.21427 -22.18823,8.21949 -26.65625,11.15626 4.89091,1.70394 12.48213,2.66925 21.65625,3 -8.05405,2.07876 -14.36448,4.21009 -17.84375,6.15625 7.07116,4.53167 20.78603,8.12516 37.15625,10.40625 -13.31989,1.09029 -23.96601,2.73062 -29.09375,4.65625 7.63892,5.64002 24.31428,11.11026 43.875,15.21875 -24.51021,0.54803 -46.27801,2.89682 -54.375,5.9375 7.3004,5.39009 22.81509,10.64574 41.25,14.6875 -25.55355,0.5127 -48.58803,3.35202 -56.96875,7.0625 12.12029,10.55027 46.87244,20.66652 80.03125,24.5 -36.99931,-2.43348 -80.64114,0.58156 -92.90625,5.1875 4.58221,3.38317 12.4407,6.70711 22.1875,9.71875 -13.58289,-0.22695 -24.52251,0.37586 -29.875,1.8125 6.98604,6.28978 22.77488,13.27323 41.59375,19.21875 -22.13421,-2.92883 -41.49542,-3.56664 -49.3125,-1.46875 8.17919,9.8033 29.43757,21.60842 53.40625,30.9375 -30.21574,-4.65348 -60.27765,-6.26486 -70.53125,-4 9.45451,9.31254 36.35478,20.82646 64.75,28.84375 -33.38827,-3.92833 -69.09326,-3.18519 -80.40625,0.96875 8.0482,8.70159 28.30265,18.1059 51.375,25.0625 -26.43343,-3.8948 -51.00136,-5.19318 -60.09375,-3.21875 20.60129,21.45281 125.64229,54.91304 145.59375,35.375 -1.62406,-8.85001 -17.72283,-16.49671 -38.78125,-22.46875 22.35743,2.31637 41.54208,0.2933 48.75,-9.0625 -1.37671,-7.4692 -10.43912,-13.37864 -23.5,-17.84375 17.64693,1.97984 32.12397,0.9504 38.28125,-5 -0.95906,-4.77288 -6.47311,-9.14023 -14.8125,-13.03125 14.71959,1.28637 26.53772,-0.46831 31.9375,-6.8125 -1.67459,-10.1482 -17.19664,-18.77819 -37.625,-25.46875 21.56076,2.38317 39.81389,1.23125 46.625,-5.96875 -1.56238,-6.29899 -11.13969,-11.506 -24.75,-15.65625 16.38152,-0.77589 29.34853,-3.86242 34.3125,-10.25 -2.91196,-8.22827 -20.06394,-13.09495 -41.84375,-15.59375 25.52283,1.48121 47.79333,-1.54098 54.6875,-12 -1.77114,-5.90033 -8.80431,-10.32745 -18.9375,-13.5625 16.54462,-0.74834 29.65752,-3.84893 34.65625,-10.28125 -1.72313,-4.869 -8.43198,-8.55766 -18.125,-11.28125 13.67502,-1.1832 24.27817,-4.27258 28.65625,-9.90625 -3.03589,-8.57846 -21.52216,-13.51028 -44.625,-15.90625 18.11208,-2.69044 32.36269,-7.84186 36.9375,-16.0625 -3.56528,-8.14496 -19.25976,-11.49888 -39.3125,-11.96876 17.87166,-4.96789 31.5892,-11.41742 35.15625,-18.90625 -5.45584,-7.34411 -27.27439,-6.51032 -52.71875,-2.09375 25.19017,-9.29433 46.03816,-20.69145 49.15625,-31.1875 -6.33067,-6.21417 -26.66919,-2.46425 -50.1875,5.34375 24.69781,-15.07602 43.52977,-31.19721 45.40625,-43.9375 -2.11687,-1.71263 -5.14623,-2.50312 -8.90625,-2.53125 z"
       id="path3701" />
    <path
       id="path4043"
       d="m 266.67146,585.4153 c 18.57143,13.44941 27.14286,22.41569 54.28572,22.41569 27.14286,0 58.57143,-9.8629 58.57143,-9.8629 0,0 -38.57143,25.10557 -60,20.62243 -21.42857,-4.48314 -57.14286,-33.17522 -52.85715,-33.17522 l 0,0 z"
       style="fill:url(#linearGradient4939);fill-opacity:1;stroke:none" />
    <path
       style="fill:#b3b3b3;fill-opacity:1;fill-rule:evenodd;stroke:none"
       d="m 313.56798,711.01817 c 18.18274,10.60017 36.36549,33.31482 62.62946,19.68603 26.26396,-13.62879 30.30457,-27.25759 30.30457,-27.25759 0,0 -26.26396,-6.05724 -46.46702,-4.54293 -20.20304,1.51431 -46.46701,12.11449 -46.46701,12.11449 z"
       id="path4107" />
    <path
       style="fill:#e9afaf;fill-opacity:1;fill-rule:evenodd;stroke:none"
       d="m 362.0553,723.22855 c 10.96644,-1.70969 17.55057,0.75595 22.22336,10.10153 4.6245,9.24901 20.12449,-2.02031 30.30457,-2.02031 11.57258,0 12.94613,-8.90552 18.18275,-14.14213 9.36454,-9.36454 15.37597,-12.12183 18.18274,-12.12183 8.85766,0 -18.34144,0.0794 -26.26396,4.04061 -1.23515,0.61757 -20.75518,18.73487 -6.06092,4.04061 13.62764,-13.62764 -4.48128,-3.71011 -12.12183,2.0203 -13.3517,10.01378 -12.06286,4.05535 -28.28427,0 -6.51224,-1.62806 -10.46966,4.66555 -16.16244,8.08122 z"
       id="path4618" />
    <g
       id="g4890"
       transform="translate(408.52232,545.65848)">
      <path
         inkscape:export-ydpi="38.686176"
         inkscape:export-xdpi="38.686176"
         inkscape:export-filename="U:\pics\squobit-1stattempt.png"
         sodipodi:nodetypes="cscsssssc"
         id="path3632-1-7"
         d="m -299.26371,-17.639766 c 11.46886,28.79041 56.87334,68.6906 58.18289,70.6909 15.08156,23.03657 37.57169,-85.82123 93.89506,-81.27231 -30.3588,-4.61982 -47.61526,-12.54746 -68.11034,-21.99281 -6.41748,-2.95756 -14.94482,-8.62864 -28.22034,-24.20548 -10.74216,-12.60433 -25.14078,-23.81587 -44.18772,-19.54945 -17.39508,3.89642 -33.19677,14.57168 -37.34765,27.64196 -3.78757,11.92628 3.36927,18.9953 8.19305,28.14587 10.82759,20.53963 5.01859,12.13774 17.59505,20.54132 l 0,0 z"
         style="fill:#483e37;stroke:none" />
      <path
         inkscape:export-ydpi="38.686176"
         inkscape:export-xdpi="38.686176"
         inkscape:export-filename="U:\pics\squobit-1stattempt.png"
         sodipodi:nodetypes="cscsssssc"
         id="path4856"
         d="m -299.26371,-17.639766 c 11.46886,28.79041 56.87334,68.6906 58.18289,70.6909 15.08156,23.03657 37.57169,-85.82123 93.89506,-81.27231 -30.3588,-4.61982 -47.61526,-12.54746 -68.11034,-21.99281 -6.41748,-2.95756 -14.94482,-8.62864 -28.22034,-24.20548 -10.74216,-12.60433 -25.14078,-23.81587 -44.18772,-19.54945 -17.39508,3.89642 -33.19677,14.57168 -37.34765,27.64196 -3.78757,11.92628 3.36927,18.9953 8.19305,28.14587 10.82759,20.53963 5.01859,12.13774 17.59505,20.54132 l 0,0 z"
         style="fill:url(#linearGradient4894);fill-opacity:1;stroke:none" />
    </g>
    <g
       id="g4837"
       transform="translate(258.02989,754.80066)">
      <g
         inkscape:export-ydpi="38.686176"
         inkscape:export-xdpi="38.686176"
         inkscape:export-filename="U:\pics\squobit-1stattempt.png"
         style="stroke:none"
         transform="matrix(-1.0675295,0.4977972,0.5150428,1.1045129,-1013.0967,-616.94272)"
         id="g3700">
        <path
           sodipodi:type="arc"
           style="fill:#ffffff;fill-rule:evenodd;stroke:none"
           id="path3640"
           sodipodi:cx="-556.78571"
           sodipodi:cy="568.07648"
           sodipodi:rx="10.357142"
           sodipodi:ry="8.9285717"
           d="m -546.42856,568.07648 c 0,4.93111 -4.63705,8.92857 -10.35715,8.92857 -5.72009,0 -10.35714,-3.99746 -10.35714,-8.92857 0,-4.93112 4.63705,-8.92857 10.35714,-8.92857 5.7201,0 10.35715,3.99745 10.35715,8.92857 z" />
        <path
           sodipodi:type="arc"
           style="fill:#000000;fill-rule:evenodd;stroke:none"
           id="path3644"
           sodipodi:cx="-552.58929"
           sodipodi:cy="569.68359"
           sodipodi:rx="5.0892859"
           sodipodi:ry="5.1785712"
           d="m -547.50001,569.68359 c 0,2.86005 -2.27855,5.17857 -5.08928,5.17857 -2.81074,0 -5.08929,-2.31852 -5.08929,-5.17857 0,-2.86004 2.27855,-5.17857 5.08929,-5.17857 2.81073,0 5.08928,2.31853 5.08928,5.17857 z"
           transform="matrix(1.1454381,0,0,1.1084478,79.563944,-62.405908)" />
        <path
           sodipodi:type="arc"
           style="fill:#ffffff;fill-rule:evenodd;stroke:none"
           id="path3648"
           sodipodi:cx="-557.05359"
           sodipodi:cy="566.38007"
           sodipodi:rx="5.0892859"
           sodipodi:ry="4.375"
           d="m -551.9643,566.38007 c 0,2.41624 -2.27855,4.375 -5.08929,4.375 -2.81073,0 -5.08928,-1.95876 -5.08928,-4.375 0,-2.41625 2.27855,-4.375 5.08928,-4.375 2.81074,0 5.08929,1.95875 5.08929,4.375 z" />
      </g>
      <g
         inkscape:export-ydpi="38.686176"
         inkscape:export-xdpi="38.686176"
         inkscape:export-filename="U:\pics\squobit-1stattempt.png"
         style="stroke:none"
         transform="matrix(-1.3360921,0.62303,0.5164685,1.1075703,-1144.906,-560.48749)"
         id="g3708">
        <path
           sodipodi:type="arc"
           style="fill:#ffffff;fill-rule:evenodd;stroke:none"
           id="path3642"
           sodipodi:cx="-514.82141"
           sodipodi:cy="569.86218"
           sodipodi:rx="3.75"
           sodipodi:ry="7.8571429"
           d="m -511.07141,569.86218 c 0,4.33938 -1.67893,7.85715 -3.75,7.85715 -2.07107,0 -3.75,-3.51777 -3.75,-7.85715 0,-4.33938 1.67893,-7.85714 3.75,-7.85714 2.07107,0 3.75,3.51776 3.75,7.85714 z"
           transform="translate(0.3571432,4.7832009e-7)" />
        <path
           sodipodi:type="arc"
           style="fill:#000000;fill-rule:evenodd;stroke:none"
           id="path3646"
           sodipodi:cx="-514.73212"
           sodipodi:cy="570.30859"
           sodipodi:rx="2.2321429"
           sodipodi:ry="3.8392856"
           d="m -512.49997,570.30859 c 0,2.12038 -0.99937,3.83929 -2.23215,3.83929 -1.23278,0 -2.23214,-1.71891 -2.23214,-3.83929 0,-2.12038 0.99936,-3.83928 2.23214,-3.83928 1.23278,0 2.23215,1.7189 2.23215,3.83928 z"
           transform="matrix(0.9871954,0,0,1.1320904,-7.126651,-74.082264)" />
        <g
           style="stroke:none"
           id="g3705"
           transform="translate(0.7142858,1.7857141)">
          <path
             d="m -512.67858,568.3443 c 0,1.82451 -0.79949,3.30357 -1.78571,3.30357 -0.98623,0 -1.78572,-1.47906 -1.78572,-3.30357 0,-1.82451 0.79949,-3.30357 1.78572,-3.30357 0.98622,0 1.78571,1.47906 1.78571,3.30357 z"
             sodipodi:ry="3.3035715"
             sodipodi:rx="1.7857143"
             sodipodi:cy="568.3443"
             sodipodi:cx="-514.46429"
             id="path3652"
             style="fill:#ffffff;fill-opacity:1;fill-rule:evenodd;stroke:none"
             sodipodi:type="arc" />
        </g>
      </g>
      <path
         inkscape:export-ydpi="38.686176"
         inkscape:export-xdpi="38.686176"
         inkscape:export-filename="U:\pics\squobit-1stattempt.png"
         sodipodi:nodetypes="cssssc"
         id="path2846"
         d="m -146.7804,-227.94081 c 5.8851,1.61754 20.90377,-9.54935 18.56444,-14.56605 -0.18401,-0.39463 0.31813,-0.50733 0.0592,-0.17175 -0.9075,1.17629 -2.66328,2.02858 -3.85182,3.0933 -3.0201,2.70546 -8.61437,4.42295 -11.00223,6.28346 -1.53374,1.19503 -3.26884,3.62133 -3.76962,5.36104 l 0,0 z"
         style="fill:#aa4400;stroke:none" />
      <path
         inkscape:export-ydpi="38.686176"
         inkscape:export-xdpi="38.686176"
         inkscape:export-filename="U:\pics\squobit-1stattempt.png"
         sodipodi:nodetypes="csssc"
         id="path3624"
         d="m -157.3499,-244.63161 c -2.02571,-7.46862 11.31937,-14.15321 16.0347,-12.52165 0.84345,0.29186 4.28818,0.91949 3.44002,1.99914 -1.50465,1.91538 -8.81268,2.59701 -11.7078,3.87403 -3.59523,1.58578 -6.05334,5.06639 -7.82616,6.82022"
         style="fill:#ffffff;stroke:none" />
      <path
         inkscape:export-ydpi="38.686176"
         inkscape:export-xdpi="38.686176"
         inkscape:export-filename="U:\pics\squobit-1stattempt.png"
         sodipodi:nodetypes="ccccccc"
         id="path3695"
         d="m -147.27886,-227.22256 c 6.06545,-1.63022 11.28427,-2.80735 14.242,-6.64115 1.69029,-1.20779 4.72106,-4.40547 5.07403,-6.44267 1.66376,3.56795 -2.28988,11.36518 -3.41914,14.6395 -3.13979,5.44223 -3.98654,10.57093 -2.23099,15.91992 -2.02313,0.96723 -2.90923,-0.14475 -5.82457,-3.19505 -5.11481,-8.69002 -5.87933,-8.47508 -7.84133,-14.28055 l 0,0 z"
         style="fill:#483737;stroke:none" />
      <path
         inkscape:export-ydpi="38.686176"
         inkscape:export-xdpi="38.686176"
         inkscape:export-filename="U:\pics\squobit-1stattempt.png"
         sodipodi:nodetypes="cccssscc"
         id="path2844"
         d="m -144.0186,-254.88373 c -10.21172,2.86581 -11.66037,6.02814 -15.21468,14.87774 -0.26566,3.97459 0.60882,6.9799 1.78429,10.69833 1.75044,4.94894 3.30021,7.97363 6.49643,7.05974 5.00377,-1.43074 1.65854,-4.80903 6.15791,-9.50146 3.58026,-3.73389 6.29816,-3.22513 11.2311,-6.39018 4.93297,-3.16505 6.31428,-4.38568 6.02334,-7.99739 0.0765,-9.45491 -8.93903,-9.53001 -16.47839,-8.74678 z"
         style="fill:#ff7f2a;stroke:none" />
      <path
         inkscape:export-ydpi="38.686176"
         inkscape:export-xdpi="38.686176"
         inkscape:export-filename="U:\pics\squobit-1stattempt.png"
         sodipodi:nodetypes="csssc"
         id="path2850"
         d="m -141.65689,-248.92266 c 1.20927,-0.6355 1.76752,-0.0533 2.26865,0.38342 2.38968,2.08268 -3.64581,7.41925 -4.06983,6.50993 -0.32975,-0.70716 1.89974,-3.55917 2.10422,-4.15205 0.0768,-0.22282 -3.735,-0.18417 -0.30304,-2.7413 z"
         style="fill:#aa4400;stroke:none" />
      <path
         inkscape:export-ydpi="38.686176"
         inkscape:export-xdpi="38.686176"
         inkscape:export-filename="U:\pics\squobit-1stattempt.png"
         sodipodi:nodetypes="cscccc"
         id="path3697"
         d="m -154.06367,-248.11071 c -2.53987,3.4265 -3.31659,7.2538 -2.65384,11.63284 0.61023,4.03194 2.99352,10.22243 2.99352,10.22243 0.12482,-6.01573 -0.0633,-12.44365 3.5371,-17.34431 3.49078,-4.52473 4.28762,-7.70658 4.28762,-7.70658 0,0 -3.61007,-0.55873 -8.1644,3.19562 l 0,0 z"
         style="fill:#ffccaa;stroke:none" />
    </g>
    <path
       style="fill:url(#linearGradient4904);fill-opacity:1;stroke:none"
       d="m 258.84586,515.1284 c -43.03523,5.8488 -57.2913,44.66535 -76.97566,77.88334 -1.01957,1.32152 -3.83349,6.36817 -7.88634,6.32723 -0.20813,-0.002 -1.04361,1.7039 -3.84999,-0.65068 2.11184,3.29272 4.02589,8.3993 6.10667,11.82817 2.87417,2.70038 8.78729,-3.39288 15.5595,-8.88614 13.95377,-12.35806 19.54071,-33.5046 28.97968,-48.97985 10.7078,-12.64209 23.35142,-29.78489 38.06614,-37.52207 l 0,0 z"
       id="path4896"
       sodipodi:nodetypes="ccsccccc"
       inkscape:export-filename="U:\pics\squobit-1stattempt.png"
       inkscape:export-xdpi="38.686176"
       inkscape:export-ydpi="38.686176" />
    <path
       style="fill:url(#linearGradient4923);fill-opacity:1;stroke:none"
       d="m 585.51974,207.74989 c -36.34682,-0.27191 -141.31996,71.79776 -157.90625,92.90625 7.92341,0.40916 20.32691,-2.15396 34.875,-6.75 -2.75343,1.8017 -4.99079,3.40797 -6.46875,4.75 5.53687,1.00461 14.07388,0.67015 24.25,-0.6875 -12.44684,4.21427 -22.18823,8.21949 -26.65625,11.15626 4.89091,1.70394 12.48213,2.66925 21.65625,3 -8.05405,2.07876 -14.36448,4.21009 -17.84375,6.15625 7.07116,4.53167 20.78603,8.12516 37.15625,10.40625 -13.31989,1.09029 -23.96601,2.73062 -29.09375,4.65625 7.63892,5.64002 24.31428,11.11026 43.875,15.21875 -24.51021,0.54803 -46.27801,2.89682 -54.375,5.9375 7.3004,5.39009 22.81509,10.64574 41.25,14.6875 -25.55355,0.5127 -48.58803,3.35202 -56.96875,7.0625 12.12029,10.55027 46.87244,20.66652 80.03125,24.5 -36.99931,-2.43348 -80.64114,0.58156 -92.90625,5.1875 4.58221,3.38317 12.4407,6.70711 22.1875,9.71875 -13.58289,-0.22695 -24.52251,0.37586 -29.875,1.8125 6.98604,6.28978 22.77488,13.27323 41.59375,19.21875 -22.13421,-2.92883 -41.49542,-3.56664 -49.3125,-1.46875 8.17919,9.8033 29.43757,21.60842 53.40625,30.9375 -30.21574,-4.65348 -60.27765,-6.26486 -70.53125,-4 9.45451,9.31254 36.35478,20.82646 64.75,28.84375 -33.38827,-3.92833 -69.09326,-3.18519 -80.40625,0.96875 8.0482,8.70159 28.30265,18.1059 51.375,25.0625 -26.43343,-3.8948 -51.00136,-5.19318 -60.09375,-3.21875 20.60129,21.45281 125.64229,54.91304 145.59375,35.375 -1.62406,-8.85001 -17.72283,-16.49671 -38.78125,-22.46875 22.35743,2.31637 41.54208,0.2933 48.75,-9.0625 -1.37671,-7.4692 -10.43912,-13.37864 -23.5,-17.84375 17.64693,1.97984 32.12397,0.9504 38.28125,-5 -0.95906,-4.77288 -6.47311,-9.14023 -14.8125,-13.03125 14.71959,1.28637 26.53772,-0.46831 31.9375,-6.8125 -1.67459,-10.1482 -17.19664,-18.77819 -37.625,-25.46875 21.56076,2.38317 39.81389,1.23125 46.625,-5.96875 -1.56238,-6.29899 -11.13969,-11.506 -24.75,-15.65625 16.38152,-0.77589 29.34853,-3.86242 34.3125,-10.25 -2.91196,-8.22827 -20.06394,-13.09495 -41.84375,-15.59375 25.52283,1.48121 47.79333,-1.54098 54.6875,-12 -1.77114,-5.90033 -8.80431,-10.32745 -18.9375,-13.5625 16.54462,-0.74834 29.65752,-3.84893 34.65625,-10.28125 -1.72313,-4.869 -8.43198,-8.55766 -18.125,-11.28125 13.67502,-1.1832 24.27817,-4.27258 28.65625,-9.90625 -3.03589,-8.57846 -21.52216,-13.51028 -44.625,-15.90625 18.11208,-2.69044 32.36269,-7.84186 36.9375,-16.0625 -3.56528,-8.14496 -19.25976,-11.49888 -39.3125,-11.96876 17.87166,-4.96789 31.5892,-11.41742 35.15625,-18.90625 -5.45584,-7.34411 -27.27439,-6.51032 -52.71875,-2.09375 25.19017,-9.29433 46.03816,-20.69145 49.15625,-31.1875 -6.33067,-6.21417 -26.66919,-2.46425 -50.1875,5.34375 24.69781,-15.07602 43.52977,-31.19721 45.40625,-43.9375 -2.11687,-1.71263 -5.14623,-2.50312 -8.90625,-2.53125 z"
       id="path4915" />
  </g>
</svg>
